/* XPM */
static char * icon_xpm[] = {
"64 64 2 1",
" 	c None",
".	c #CD0A0A",
"                                                                ",
"                                                                ",
"                                                                ",
"                                                                ",
"                                                                ",
"                                                                ",
"                                                                ",
"                                                                ",
"                                                                ",
"                                                                ",
"                                                                ",
"                                                                ",
"             .........                     .........            ",
"             .........                     .........            ",
"             .........                     .........            ",
"             ..........                   ..........            ",
"             ..........                   ..........            ",
"             ..........                   ..........            ",
"             ...........                 ...........            ",
"             ..... .....                 ..... .....            ",
"             ..... ......               ...... .....            ",
"             .....  .....               .....  .....            ",
"             .....  .....               .....  .....            ",
"             .....  ......             ......  .....            ",
"             .....   .....             .....   .....            ",
"             .....   ......           ......   .....            ",
"             .....    .....           .....    .....            ",
"             .....    .....           .....    .....            ",
"             .....    ......         ......    .....            ",
"             .....     .....         .....     .....            ",
"             .....     .....         .....     .....            ",
"             .....     ......       ......     .....            ",
"             .....      .....       .....      .....            ",
"             .....      ......     ......      .....            ",
"             .....       .....     .....       .....            ",
"             .....       .....     .....       .....            ",
"             .....       ......   ......       .....            ",
"             .....        .....   .....        .....            ",
"             .....        ...... ......        .....            ",
"             .....         ..... .....         .....            ",
"             .....         ...........         .....            ",
"             .....         ...........         .....            ",
"             .....          .........          .....            ",
"             .....          .........          .....            ",
"             .....          ........           .....            ",
"             .....           .......           .....            ",
"             .....           .......           .....            ",
"             .....                             .....            ",
"             .....                             .....            ",
"             .....                             .....            ",
"             .....                             .....            ",
"             .....                             .....            ",
"             .....                             .....            ",
"             .....                             .....            ",
"             .....                             .....            ",
"                                                                ",
"                                                                ",
"                                                                ",
"                                                                ",
"                                                                ",
"                                                                ",
"                                                                ",
"                                                                ",
"                                                                "};
